<svg id="Capa_1" data-name="Capa 1" xmlns="http://www.w3.org/2000/svg" viewBox="0 0 405.9 410.83"><title>car</title><path d="M316.35,413.83a44.36,44.36,0,0,1-42.4-32l-.62-2.17H132.21l-.63,2.17a44.12,44.12,0,0,1-84.83,0l-.62-2.17H38.67c-18.31,0-33.2-14.58-33.2-32.5v-20.7c0-27.46,22.61-49.8,50.4-49.8h42.7a19.3,19.3,0,0,0,13.82-6.28l47.68-51.17a33.42,33.42,0,0,1,24-10.55h15.27v-18h-14.8a7,7,0,0,1,0-14h48.15l-1.54-4.06a133.12,133.12,0,0,1-8.8-48.22v-67a6.73,6.73,0,0,1,3.47-6.19L312.11,3.92A6.57,6.57,0,0,1,315.45,3a7,7,0,0,1,3.3.83l88.8,47.3a7.15,7.15,0,0,1,3.81,6.33v65.62A130.48,130.48,0,0,1,353,231.79l-3.15,2.1,39.06,36.59a32.53,32.53,0,0,1,10.55,24v52.7c0,17.92-14.8,32.5-33,32.5h-7.06l-.63,2.17a44.22,44.22,0,0,1-42.44,32ZM316.27,340a30.1,30.1,0,1,0,30.1,30.1A30.13,30.13,0,0,0,316.27,340Zm-227.2,0a30.1,30.1,0,1,0,30.1,30.1A30.13,30.13,0,0,0,89.07,340Zm227.2-14.6c21.21,0,40.37,16.54,43.64,37.66l.39,2.54h6.07c10.65,0,19-8.13,19-18.5v-3h-.1v-49.6a5.65,5.65,0,0,0-.35-1.85l-.68-2.05H232.37v75h39.87l.39-2.54C275.9,341.93,295.06,325.39,316.27,325.39Zm-227.2,0c21.21,0,40.37,16.54,43.64,37.66l.39,2.54h85.27v-75H101.57l-.13,0a6.54,6.54,0,0,0-1-.08h-.21l-.21,0a11,11,0,0,1-1.58.07H55.77c-20.07,0-36.4,16.06-36.4,35.8v20.7c0,10.2,8.61,18.5,19.2,18.5H45l.39-2.54C48.7,341.93,67.86,325.39,89.07,325.39Zm221.75-48.8h63.62l-37.72-35.52-1.79.75c-.57.24-1.13.45-1.7.66s-1.27.48-1.9.74L317.78,249a7.7,7.7,0,0,1-3,.63,6.76,6.76,0,0,1-2.65-.54L295.55,242Zm-78.45,0h63.1l-21.09-47.86-.67-.48a44.91,44.91,0,0,1-5.62-4.78l-.88-.88H232.37Zm-48.44-54A19.81,19.81,0,0,0,170.25,229L126,276.59h92.38v-54H183.93ZM236.37,61.51v62.77a116.45,116.45,0,0,0,69.7,106.65l9,4,10.29-4.39.6-.21a116.42,116.42,0,0,0,71.44-107.26V61.59L315.65,18Zm-23,147.07H253l-3.75-4.84c-3.28-4.23-6-8.09-8.46-11.8l-.89-1.36H213.37Z" transform="translate(-5.47 -3)"/><path d="M301.76,158.49a3.4,3.4,0,0,0-.45-.08l-.39-.08-.25-.08-.47-.46h-.73l-.11-.05-.21-.14-.12-.09-.19-.19-.48-.24-.13-.1a3.87,3.87,0,0,0-.59-.55l-.16-.17-.21-.22L274,128.75l-.09-.1a7,7,0,0,1,.94-9.79,6.74,6.74,0,0,1,4.44-1.64,7.15,7.15,0,0,1,5.43,2.52l18.9,22.12,49.07-39.95a7.08,7.08,0,0,1,4.41-1.53,7.06,7.06,0,0,1,7,7.69,6.84,6.84,0,0,1-2.52,4.69l-54.26,44.09-.3.2,0,0a3.51,3.51,0,0,0-.44.24,4,4,0,0,0-.48.27l-.34.17-.28.13h-.17l-.62.31-.21.06-.13,0h-1l-.2.2Z" transform="translate(-5.47 -3)"/></svg>