<?xml version="1.0" encoding="iso-8859-1"?>
<!-- Generator: Adobe Illustrator 19.0.0, SVG Export Plug-In . SVG Version: 6.00 Build 0)  -->
<svg version="1.1" id="Capa_1" xmlns="http://www.w3.org/2000/svg" xmlns:xlink="http://www.w3.org/1999/xlink" x="0px" y="0px"
	 viewBox="0 0 511.999 511.999" style="enable-background:new 0 0 511.999 511.999;" xml:space="preserve">
<g>
	<g>
		<path d="M464.596,68.744c-27.491-27.077-63.256-42.219-100.708-42.635c-38.699-0.434-75.898,14.71-107.893,43.873
			c-27.286-24.832-58.83-39.7-91.63-43.115c-32.363-3.372-64.235,4.273-92.168,22.099c-3.492,2.229-4.516,6.865-2.288,10.357
			c2.229,3.492,6.865,4.516,10.357,2.288c25.045-15.984,53.589-22.839,82.546-19.825c31.523,3.282,61.934,18.452,87.943,43.87
			c2.914,2.849,7.57,2.849,10.484,0c30.239-29.551,65.657-44.972,102.483-44.548c33.55,0.373,65.637,13.982,90.348,38.323
			c29.86,29.411,45.023,70.161,42.694,114.744c-2.497,47.783-25.089,97.329-65.573,144.164c-0.227-3.233-0.495-6.463-0.796-9.69
			c-1.798-19.27-4.679-38.558-9.376-57.345c-0.179-0.745-0.356-1.49-0.541-2.237c2.984,1.565,6.165,2.73,9.524,3.313
			c9.914,1.722,19.779-2.417,26.549-9.854c7.681-8.437,11.98-20.937,10.953-31.846c-1.154-12.268-7.606-22.747-13.846-32.881
			c-3.257-5.289-6.333-10.284-8.444-15.209c-6.908-16.115-16.551-33.61-35.694-41.185c-5.758-2.278-11.934-3.433-18.358-3.433
			c-11.958,0-24.755,3.923-38.102,11.646c-2.22-1.817-4.488-3.574-6.813-5.255c-26.137-18.898-58.224-27.537-90.248-27.537
			c-34.943,0-69.8,10.48-97.061,32.792c-13.347-7.724-26.145-11.646-38.104-11.646c-6.424,0-12.601,1.155-18.358,3.433
			c-19.142,7.573-28.786,25.068-35.695,41.185c-2.112,4.926-5.187,9.921-8.444,15.21c-6.24,10.134-12.692,20.612-13.846,32.88
			c-1.027,10.906,3.272,23.404,10.951,31.842c6.7,7.362,16.582,11.592,26.551,9.858c3.358-0.583,6.54-1.749,9.524-3.314
			c-0.186,0.755-0.365,1.506-0.546,2.258c-3.074,12.794-5.813,25.906-7.268,38.996c-1.264,9.306-2.237,18.651-2.899,28.02
			c-40.476-46.825-63.064-96.357-65.567-144.129c-2.335-44.571,12.815-85.317,42.66-114.735c2.95-2.908,2.984-7.656,0.076-10.606
			c-2.908-2.951-7.657-2.984-10.606-0.077c-32.941,32.469-49.672,77.289-47.11,126.202c2.928,55.897,31.151,113.595,81.616,166.864
			c0.038,0.042,0.072,0.087,0.11,0.128c42.102,44.414,99.477,85.818,170.533,123.065c1.09,0.572,2.286,0.857,3.482,0.857
			c1.196,0,2.392-0.286,3.482-0.857c43.043-22.563,81.409-46.871,114.034-72.249c3.27-2.543,3.858-7.255,1.315-10.525
			s-7.256-3.858-10.525-1.315c-31.043,24.148-67.463,47.34-108.305,68.969c-66.783-35.362-120.913-74.374-160.986-116.021
			c0.01-0.312,0.021-0.628,0.032-0.949c0.193-5.414,0.472-10.832,0.914-16.232c2.442-29.795,7.789-60.933,17.641-89.86
			c9.804-28.814,24.363-56.796,46.427-78.147c12.677-12.268,27.763-21.967,44.306-28.13c15.675-5.838,32.909-8.769,51.666-8.769
			c36.596,0,67.388,11.183,92.12,33.316c24.205,21.662,39.945,51.333,50.288,81.758c11.46,33.709,17.138,69.444,18.505,104.964
			c0.026,0.683,0.049,1.366,0.072,2.048c-9.138,9.496-19.121,18.963-29.714,28.176c-3.125,2.718-3.455,7.456-0.736,10.581
			c2.718,3.125,7.456,3.455,10.581,0.736c11.788-10.253,22.856-20.824,32.899-31.418c0.039-0.041,0.072-0.085,0.109-0.126
			c50.477-53.282,78.701-110.994,81.623-166.903C514.3,146.03,497.556,101.207,464.596,68.744z M122.029,192.829
			c-9.256,15.173-16.527,31.532-22.325,48.315c-0.023,0.067-0.048,0.132-0.071,0.199c-6.738,9.4-13.889,15.16-20.208,16.258
			c-5.004,0.867-9.583-1.545-12.889-5.177c-4.816-5.291-7.739-13.655-7.11-20.34c0.827-8.786,6.101-17.352,11.685-26.421
			c3.398-5.518,6.911-11.224,9.458-17.165c5.692-13.277,13.401-27.597,27.426-33.146c3.993-1.58,8.313-2.381,12.84-2.381
			c7.966,0,16.955,2.512,26.365,7.324C137.531,170.059,129.179,181.107,122.029,192.829z M412.365,241.343
			c-0.022-0.063-0.045-0.125-0.067-0.188c-0.073-0.212-0.147-0.425-0.221-0.637c-3.205-9.263-6.879-18.364-11.081-27.22
			c-8.779-18.503-19.967-36.006-34.143-50.856c-0.684-0.718-1.362-1.447-2.056-2.149c9.41-4.811,18.399-7.323,26.365-7.323
			c4.527,0,8.847,0.801,12.84,2.381c14.025,5.549,21.734,19.869,27.426,33.146c2.546,5.94,6.06,11.646,9.458,17.164
			c5.584,9.069,10.858,17.635,11.686,26.421c0.629,6.687-2.295,15.052-7.111,20.342c-3.295,3.62-7.907,6.038-12.889,5.174
			C426.254,256.502,419.103,250.741,412.365,241.343z"/>
	</g>
</g>
<g>
	<g>
		<path d="M185.744,227.182c-4.142,0-7.5,3.358-7.5,7.5v12.715c0,4.142,3.358,7.5,7.5,7.5c4.142,0,7.5-3.358,7.5-7.5v-12.715
			C193.244,230.54,189.886,227.182,185.744,227.182z"/>
	</g>
</g>
<g>
	<g>
		<path d="M326.254,227.182c-4.142,0-7.5,3.358-7.5,7.5v12.715c0,4.142,3.358,7.5,7.5,7.5c4.142,0,7.5-3.358,7.5-7.5v-12.715
			C333.754,230.54,330.396,227.182,326.254,227.182z"/>
	</g>
</g>
<g>
	<g>
		<path d="M272.678,240.53h-33.359c-6.626,0-8.482,9.076-2.396,11.698c5.799,2.498,12.262,3.893,19.076,3.893
			c6.814,0,13.277-1.395,19.075-3.893C281.16,249.606,279.305,240.53,272.678,240.53z"/>
	</g>
</g>
<g>
	<g>
		<path d="M292.024,265.611c-3.119-2.726-7.857-2.408-10.583,0.711c-2.396,2.741-6.004,4.313-9.898,4.313
			c-3.894,0-7.502-1.572-9.898-4.313c-1.402-1.604-3.51-2.557-5.639-2.557c-2.141,0-4.246,0.944-5.655,2.557
			c-2.396,2.741-6.004,4.313-9.899,4.313c-3.893,0-7.501-1.573-9.897-4.314c-2.726-3.118-7.464-3.438-10.583-0.71
			c-3.119,2.726-3.437,7.464-0.711,10.583c5.245,6,12.969,9.441,21.192,9.441c5.627,0,11.02-1.613,15.545-4.554
			c4.525,2.94,9.918,4.554,15.545,4.554c8.223,0,15.948-3.441,21.192-9.441C295.461,273.075,295.143,268.337,292.024,265.611z"/>
	</g>
</g>
<g>
</g>
<g>
</g>
<g>
</g>
<g>
</g>
<g>
</g>
<g>
</g>
<g>
</g>
<g>
</g>
<g>
</g>
<g>
</g>
<g>
</g>
<g>
</g>
<g>
</g>
<g>
</g>
<g>
</g>
</svg>
