<svg id="Layer_1" data-name="Layer 1" xmlns="http://www.w3.org/2000/svg" viewBox="0 0 394.97 392.98"><title>edit (1)</title><path d="M372.13,254.91a7,7,0,0,0-7,7v88.68a33,33,0,0,1-33,33H52a33,33,0,0,1-33-33V90.31a33.05,33.05,0,0,1,33-33h88.67a7,7,0,0,0,0-14H52A47.06,47.06,0,0,0,5,90.32V350.57A47.06,47.06,0,0,0,52,397.5H332.18a47.07,47.07,0,0,0,46.93-46.93V261.89A7,7,0,0,0,372.13,254.91Z" transform="translate(-5.03 -4.52)"/><path d="M387.76,28.52,376,16.81a41.94,41.94,0,0,0-59.32,0L138.55,195a7,7,0,0,0-1.79,3.08l-23.43,84.59a7,7,0,0,0,8.6,8.6l84.59-23.44a7,7,0,0,0,3.08-1.79L387.76,87.84A42.06,42.06,0,0,0,387.76,28.52ZM365.17,90.67,313.89,39.4l12.72-12.71a28,28,0,0,1,39.55,0l11.73,11.72a28.05,28.05,0,0,1,0,39.55Zm-173,166.62-62,17.19,17.19-62ZM355.29,100.55,205.22,250.62,154,199.35,304,49.28Z" transform="translate(-5.03 -4.52)"/></svg>