<svg id="Capa_1" data-name="Capa 1" xmlns="http://www.w3.org/2000/svg" viewBox="0 0 504 504"><title>no-pets</title><path d="M488,158.73A257.61,257.61,0,0,0,353.43,24.06a246.26,246.26,0,0,0-194.67,0A258,258,0,0,0,24.07,158.68,246.21,246.21,0,0,0,24,353.27,257.6,257.6,0,0,0,158.57,487.94a246.67,246.67,0,0,0,194.93,0A257.57,257.57,0,0,0,488,353.21a246.42,246.42,0,0,0,0-194.48ZM230.9,215.35l8.54-.75c.69-.06,1.46-.15,2.3-.24h.13a93.32,93.32,0,0,1,10.48-.7c13.87,0,25.73,4.82,35.22,14.31,16.48,16.48,14.59,35.56,13.58,45.81l0,.24c-.07.73-.14,1.42-.2,2.08l-.75,8.54Zm-59.53,5.21,30.92-2.71,95.39,95.39L295,344.17c-2.57,29.37-26.7,44.74-49.2,44.74-19.5,0-36-10.74-44.21-28.72l-8.09-17.79a41,41,0,0,0-20.34-20.34L155.35,314c-20.88-9.5-31.86-30.25-28-52.87S148.52,222.55,171.37,220.55Zm192.9,120.27a18.83,18.83,0,0,1,5.52-13.36l.13-.12c3.68-3.45,16-7.45,32.9-10.71l5.8-1.12-1.12,5.8c-3.25,16.91-7.25,29.2-10.67,32.84l-.13.13a19,19,0,0,1-32.44-13.46ZM184.71,142l-.12.13a19,19,0,0,1-26.92-26.82l.13-.12c3.68-3.45,16-7.45,32.89-10.71l5.8-1.12-1.12,5.8C192.11,126.1,188.11,138.39,184.71,142ZM86.45,102,182,197.54l-8.55.75c-21.3,1.86-35.1,7.66-47.64,20-16.53,16.3-24.22,40.93-20.08,64.27,4.11,23.14,18.49,41.4,40.51,51.41,3.3,1.5,6.11,2.74,8.52,3.8,15.54,6.84,16.39,7.67,22.66,22.17,1.15,2.65,2.44,5.65,4.12,9.33,7.07,15.54,18.52,27.51,33.1,34.6a71.21,71.21,0,0,0,31,7,72.75,72.75,0,0,0,51.6-21.2c12.19-12.37,18.18-26.62,20-47.64l.75-8.54,92,92-3.2,2.82C364.63,465.53,311.07,486,256,486c-60.51,0-118-24.18-161.91-68.07C7.38,331.23,2.89,196.79,83.64,105.21ZM425.55,410,395.86,380.3l5.1-2.44a41,41,0,0,0,11.31-8c2.39-2.39,9.65-9.65,15.87-39.63,2.88-13.86,4.2-25.83,4.26-26.33a10.87,10.87,0,0,0-2.74-8.54,11,11,0,0,0-8.16-3.67,11.12,11.12,0,0,0-1.24.07c-1.29.14-13,1.49-26.34,4.26-30,6.22-37.25,13.49-39.63,15.87a41,41,0,0,0-8,11.31l-2.44,5.1L320.5,304.94l3.16-36.15A71,71,0,0,0,253,191.6c-2.07,0-4.17.09-6.24.27L210.6,195,183.7,168.15l5.11-2.44a40.75,40.75,0,0,0,11.32-8c2.39-2.39,9.65-9.65,15.87-39.63,2.82-13.6,4.2-25.82,4.26-26.33a10.86,10.86,0,0,0-2.74-8.54,11,11,0,0,0-8.16-3.67,11.32,11.32,0,0,0-1.24.07c-.51.06-12.6,1.41-26.34,4.25-30,6.22-37.25,13.48-39.63,15.87a40.76,40.76,0,0,0-8,11.32l-2.44,5.11L102,86.46l3.19-2.82C147.37,46.47,200.93,26,256,26c60.51,0,118,24.18,161.91,68.07,86.69,86.69,91.18,221.13,10.43,312.72Z" transform="translate(-4 -4)"/><path d="M429.66,168.06a11,11,0,0,0-8.17-3.67,11.41,11.41,0,0,0-1.23.07c-.51.06-12.63,1.41-26.34,4.26-30,6.22-37.25,13.49-39.63,15.87a41,41,0,0,0,58,58c2.39-2.39,9.65-9.65,15.87-39.63,2.88-13.87,4.2-25.83,4.26-26.33A10.86,10.86,0,0,0,429.66,168.06Zm-59.87,32.13.13-.13c3.68-3.45,16-7.45,32.89-10.71l5.8-1.12L407.5,194c-3.26,16.92-7.26,29.21-10.66,32.84l-.12.13a19,19,0,0,1-26.92-26.82Z" transform="translate(-4 -4)"/><path d="M347.54,91.74a10.86,10.86,0,0,0-2.74-8.54,11,11,0,0,0-8.16-3.67,11.31,11.31,0,0,0-1.24.07c-.51.06-12.6,1.4-26.34,4.25-30,6.22-37.25,13.48-39.63,15.87a41,41,0,0,0,58,58c2.39-2.39,9.65-9.64,15.87-39.63C346.17,104.18,347.53,91.86,347.54,91.74ZM312,142l-.12.13a19,19,0,0,1-26.92-26.82l.13-.13c3.68-3.45,16-7.45,32.89-10.71l5.8-1.12-1.12,5.8C319.39,126.1,315.39,138.39,312,142Z" transform="translate(-4 -4)"/></svg>