<svg xmlns="http://www.w3.org/2000/svg" height="750pt" version="1.1" viewBox="0 -62 750 750" width="750pt">
<g id="surface1">
<path d="M 337.5 50 L 212.5 50 C 205.59375 50 200 55.59375 200 62.5 L 200 187.5 C 200 194.40625 205.59375 200 212.5 200 L 337.5 200 C 344.40625 200 350 194.40625 350 187.5 L 350 62.5 C 350 55.59375 344.40625 50 337.5 50 Z M 325 175 L 225 175 L 225 75 L 325 75 Z M 325 175 " style=" stroke:none;fill-rule:nonzero;fill:rgb(0%,0%,0%);fill-opacity:1;" />
<path d="M 737.5 25 L 687.5 25 L 687.5 12.5 C 687.5 5.59375 681.90625 0 675 0 L 625 0 C 618.09375 0 612.5 5.59375 612.5 12.5 L 612.5 25 L 500 25 L 500 12.5 C 500 5.59375 494.40625 0 487.5 0 L 462.5 0 C 446.671875 0.0703125 432.578125 10.070312 427.300781 25 L 397.699219 25 C 392.421875 10.070312 378.328125 0.0703125 362.5 0 L 162.5 0 C 155.59375 0 150 5.59375 150 12.5 L 150 25 L 137.5 25 L 137.5 12.5 C 137.5 5.59375 131.90625 0 125 0 L 75 0 C 68.09375 0 62.5 5.59375 62.5 12.5 L 62.5 25 L 12.5 25 C 5.59375 25 0 30.59375 0 37.5 L 0 212.5 C 0 219.40625 5.59375 225 12.5 225 L 62.5 225 L 62.5 237.5 C 62.5 244.40625 68.09375 250 75 250 L 125 250 C 131.90625 250 137.5 244.40625 137.5 237.5 L 137.5 225 L 150 225 L 150 237.5 C 150 244.40625 155.59375 250 162.5 250 L 362.5 250 C 378.328125 249.929688 392.421875 239.929688 397.699219 225 L 427.300781 225 C 432.578125 239.929688 446.671875 249.929688 462.5 250 L 487.5 250 C 494.40625 250 500 244.40625 500 237.5 L 500 225 L 612.5 225 L 612.5 237.5 C 612.5 244.40625 618.09375 250 625 250 L 675 250 C 681.90625 250 687.5 244.40625 687.5 237.5 L 687.5 225 L 737.5 225 C 744.40625 225 750 219.40625 750 212.5 L 750 37.5 C 750 30.59375 744.40625 25 737.5 25 Z M 25 200 L 25 50 L 62.5 50 L 62.5 200 Z M 112.5 225 L 87.5 225 L 87.5 25 L 112.5 25 Z M 137.5 200 L 137.5 50 L 150 50 L 150 200 Z M 425 50 L 425 200 L 400 200 L 400 50 Z M 375 212.5 C 375 219.40625 369.40625 225 362.5 225 L 175 225 L 175 25 L 362.5 25 C 369.40625 25 375 30.59375 375 37.5 Z M 475 225 L 462.5 225 C 455.59375 225 450 219.40625 450 212.5 L 450 37.5 C 450 30.59375 455.59375 25 462.5 25 L 475 25 Z M 500 200 L 500 50 L 612.5 50 L 612.5 200 Z M 662.5 225 L 637.5 225 L 637.5 25 L 662.5 25 Z M 725 200 L 687.5 200 L 687.5 50 L 725 50 Z M 725 200 " style=" stroke:none;fill-rule:nonzero;fill:rgb(0%,0%,0%);fill-opacity:1;" />
<path d="M 300 375 L 100 375 C 93.09375 375 87.5 380.59375 87.5 387.5 L 87.5 400 L 75 400 L 75 387.5 C 75 380.59375 69.40625 375 62.5 375 L 12.5 375 C 5.59375 375 0 380.59375 0 387.5 L 0 612.5 C 0 619.40625 5.59375 625 12.5 625 L 62.5 625 C 69.40625 625 75 619.40625 75 612.5 L 75 600 L 87.5 600 L 87.5 612.5 C 87.5 619.40625 93.09375 625 100 625 L 300 625 C 320.707031 625 337.5 608.207031 337.5 587.5 L 337.5 412.5 C 337.5 391.792969 320.707031 375 300 375 Z M 50 600 L 25 600 L 25 400 L 50 400 Z M 75 575 L 75 425 L 87.5 425 L 87.5 575 Z M 312.5 587.5 C 312.5 594.40625 306.90625 600 300 600 L 112.5 600 L 112.5 400 L 300 400 C 306.90625 400 312.5 405.59375 312.5 412.5 Z M 312.5 587.5 " style=" stroke:none;fill-rule:nonzero;fill:rgb(0%,0%,0%);fill-opacity:1;" />
<path d="M 275 425 L 150 425 C 143.09375 425 137.5 430.59375 137.5 437.5 L 137.5 562.5 C 137.5 569.40625 143.09375 575 150 575 L 275 575 C 281.90625 575 287.5 569.40625 287.5 562.5 L 287.5 437.5 C 287.5 430.59375 281.90625 425 275 425 Z M 262.5 550 L 162.5 550 L 162.5 450 L 262.5 450 Z M 262.5 550 " style=" stroke:none;fill-rule:nonzero;fill:rgb(0%,0%,0%);fill-opacity:1;" />
<path d="M 737.5 375 L 687.5 375 C 680.59375 375 675 380.59375 675 387.5 L 675 400 L 562.5 400 L 562.5 387.5 C 562.5 380.59375 556.90625 375 550 375 L 525 375 C 509.171875 375.070312 495.078125 385.070312 489.800781 400 L 387.5 400 C 366.792969 400 350 416.792969 350 437.5 L 350 562.5 C 350 583.207031 366.792969 600 387.5 600 L 489.800781 600 C 495.078125 614.929688 509.171875 624.929688 525 625 L 550 625 C 556.90625 625 562.5 619.40625 562.5 612.5 L 562.5 600 L 675 600 L 675 612.5 C 675 619.40625 680.59375 625 687.5 625 L 737.5 625 C 744.40625 625 750 619.40625 750 612.5 L 750 387.5 C 750 380.59375 744.40625 375 737.5 375 Z M 375 562.5 L 375 437.5 C 375 430.59375 380.59375 425 387.5 425 L 487.5 425 L 487.5 450 L 412.5 450 C 405.59375 450 400 455.59375 400 462.5 L 400 537.5 C 400 544.40625 405.59375 550 412.5 550 L 487.5 550 L 487.5 575 L 387.5 575 C 380.59375 575 375 569.40625 375 562.5 Z M 487.5 475 L 487.5 525 L 425 525 L 425 475 Z M 537.5 600 L 525 600 C 518.09375 600 512.5 594.40625 512.5 587.5 L 512.5 412.5 C 512.5 405.59375 518.09375 400 525 400 L 537.5 400 Z M 562.5 575 L 562.5 425 L 675 425 L 675 575 Z M 725 600 L 700 600 L 700 400 L 725 400 Z M 725 600 " style=" stroke:none;fill-rule:nonzero;fill:rgb(0%,0%,0%);fill-opacity:1;" />
</g>
</svg>