<?xml version="1.0" encoding="iso-8859-1"?>
<!-- Generator: Adobe Illustrator 19.0.0, SVG Export Plug-In . SVG Version: 6.00 Build 0)  -->
<svg version="1.1" id="Capa_1" xmlns="http://www.w3.org/2000/svg" xmlns:xlink="http://www.w3.org/1999/xlink" x="0px" y="0px"
	 viewBox="0 0 511.989 511.989" style="enable-background:new 0 0 511.989 511.989;" xml:space="preserve">
<g>
	<g>
		<path d="M188.869,88.456L103.536,3.123c-4.16-4.16-10.923-4.16-15.083,0c-4.16,4.16-4.16,10.923,0,15.083l77.803,77.781
			l-70.251,70.251L18.203,88.456c-4.16-4.16-10.923-4.16-15.083,0c-4.16,4.16-4.16,10.923,0,15.083l85.333,85.333
			c2.091,2.069,4.821,3.115,7.552,3.115s5.461-1.045,7.531-3.115l85.333-85.333C193.029,99.379,193.029,92.616,188.869,88.456z"/>
	</g>
</g>
<g>
	<g>
		<path d="M259.12,116.019l-33.835-33.835c-12.48-12.48-32.768-12.48-45.248,0L82.8,179.421c-6.059,6.08-9.387,14.123-9.387,22.677
			c0,8.533,3.328,16.555,9.344,22.549c10.112,10.091,23.232,23.552,33.216,33.856c6.016,6.208,14.059,9.664,22.677,9.728
			c0.107,0,0.192,0,0.277,0c8.555,0,16.576-3.328,22.635-9.408l97.557-97.557C271.6,148.787,271.6,128.499,259.12,116.019z
			 M244.059,146.205l-97.557,97.557c-2.048,2.048-5.099,3.051-7.637,3.136c-2.859-0.021-5.525-1.152-7.531-3.221
			c-10.069-10.389-23.275-23.936-33.472-34.112c-2.005-2.005-3.115-4.651-3.115-7.467c0-2.859,1.109-5.547,3.136-7.573
			l97.237-97.237c2.091-2.091,4.821-3.115,7.552-3.115c2.731,0,5.461,1.024,7.552,3.115l33.835,33.813
			c2.005,2.027,3.115,4.693,3.115,7.552C247.173,141.512,246.064,144.179,244.059,146.205z"/>
	</g>
</g>
<g>
	<g>
		<path d="M306.224,227.123l-64-64c-4.16-4.16-10.923-4.16-15.083,0c-4.16,4.16-4.16,10.923,0,15.083l56.448,56.448l-48.917,48.917
			l-56.469-56.448c-4.16-4.16-10.923-4.16-15.083,0c-4.16,4.16-4.16,10.923,0,15.083l64,64c2.091,2.069,4.821,3.115,7.552,3.115
			c2.731,0,5.461-1.045,7.552-3.115l64-64C310.384,238.045,310.384,231.283,306.224,227.123z"/>
	</g>
</g>
<g>
	<g>
		<path d="M210.203,131.123c-4.16-4.16-10.923-4.16-15.083,0l-64,64c-4.16,4.16-4.16,10.923,0,15.083
			c2.091,2.069,4.821,3.115,7.552,3.115s5.461-1.045,7.531-3.115l64-64C214.363,142.045,214.363,135.283,210.203,131.123z"/>
	</g>
</g>
<g>
	<g>
		<path d="M508.869,408.456l-64-64c-4.16-4.16-10.923-4.16-15.083,0l-85.333,85.333c-4.16,4.16-4.16,10.923,0,15.083l64,64
			c2.091,2.069,4.821,3.115,7.552,3.115c2.731,0,5.461-1.045,7.531-3.136c4.16-4.16,4.16-10.923,0-15.083l-56.448-56.448
			l70.251-70.251l56.448,56.469c4.16,4.16,10.923,4.16,15.083,0C513.029,419.379,513.029,412.616,508.869,408.456z"/>
	</g>
</g>
<g>
	<g>
		<path d="M447.216,348.019c-0.619-1.579-1.579-2.944-2.795-4.011c-3.648-4.715-20.757-31.104-58.645-92.245
			c-5.141-8.299-13.653-13.717-23.339-14.848c-9.792-1.131-19.392,2.24-26.389,9.237l-90.133,90.133
			c-6.891,6.912-10.24,16.405-9.173,26.112s6.4,18.283,14.635,23.531l94.891,60.395c1.771,1.131,3.755,1.664,5.739,1.664
			c2.752,0,5.483-1.067,7.509-3.157l85.333-85.333C447.856,356.488,448.795,351.987,447.216,348.019z M350.533,423.731
			l-87.68-55.787c-2.752-1.749-4.523-4.608-4.885-7.851s0.768-6.421,3.051-8.704l90.133-90.133c2.069-2.048,4.779-3.179,7.616-3.179
			c0.405,0,0.811,0.021,1.28,0.064c1.856,0.213,5.333,1.131,7.659,4.885c31.595,51.008,47.019,75.84,55.573,87.957L350.533,423.731z
			"/>
	</g>
</g>
<g>
	<g>
		<path d="M380.869,301.789c-4.16-4.16-10.923-4.16-15.083,0l-64,64c-4.16,4.16-4.16,10.923,0,15.083
			c2.091,2.069,4.821,3.115,7.552,3.115c2.731,0,5.461-1.045,7.531-3.115l64-64C385.029,312.712,385.029,305.949,380.869,301.789z"
			/>
	</g>
</g>
<g>
	<g>
		<path d="M309.339,106.653c-5.888,0-10.667,4.779-10.667,10.667v21.333c0,5.888,4.779,10.667,10.667,10.667
			s10.667-4.779,10.667-10.667V117.32C320.005,111.432,315.227,106.653,309.339,106.653z"/>
	</g>
</g>
<g>
	<g>
		<path d="M394.672,191.987h-21.333c-5.888,0-10.667,4.779-10.667,10.667s4.779,10.667,10.667,10.667h21.333
			c5.888,0,10.667-4.779,10.667-10.667S400.56,191.987,394.672,191.987z"/>
	</g>
</g>
<g>
	<g>
		<path d="M380.869,131.123c-4.16-4.16-10.923-4.16-15.083,0l-21.333,21.333c-4.16,4.16-4.16,10.923,0,15.083
			c2.091,2.069,4.821,3.115,7.552,3.115c2.731,0,5.461-1.045,7.531-3.115l21.333-21.333
			C385.029,142.045,385.029,135.283,380.869,131.123z"/>
	</g>
</g>
<g>
	<g>
		<path d="M202.672,362.653c-5.888,0-10.667,4.779-10.667,10.667v21.333c0,5.888,4.779,10.667,10.667,10.667
			s10.667-4.779,10.667-10.667V373.32C213.339,367.432,208.56,362.653,202.672,362.653z"/>
	</g>
</g>
<g>
	<g>
		<path d="M138.672,298.653h-21.333c-5.888,0-10.667,4.779-10.667,10.667s4.779,10.667,10.667,10.667h21.333
			c5.888,0,10.667-4.779,10.667-10.667S144.56,298.653,138.672,298.653z"/>
	</g>
</g>
<g>
	<g>
		<path d="M167.536,344.456c-4.16-4.16-10.923-4.16-15.083,0l-21.333,21.333c-4.16,4.16-4.16,10.923,0,15.083
			c2.091,2.069,4.821,3.115,7.552,3.115s5.461-1.045,7.531-3.115l21.333-21.333C171.696,355.379,171.696,348.616,167.536,344.456z"
			/>
	</g>
</g>
<g>
</g>
<g>
</g>
<g>
</g>
<g>
</g>
<g>
</g>
<g>
</g>
<g>
</g>
<g>
</g>
<g>
</g>
<g>
</g>
<g>
</g>
<g>
</g>
<g>
</g>
<g>
</g>
<g>
</g>
</svg>
